<svg width="20" height="21" viewBox="0 0 18 19" fill="none" xmlns="http://www.w3.org/2000/svg">
<path d="M7.6 10.9L5.45 8.75C5.26667 8.56667 5.03333 8.475 4.75 8.475C4.46667 8.475 4.23333 8.56667 4.05 8.75C3.86667 8.93333 3.775 9.16667 3.775 9.45C3.775 9.73333 3.86667 9.96667 4.05 10.15L6.9 13C7.1 13.2 7.33333 13.3 7.6 13.3C7.86667 13.3 8.1 13.2 8.3 13L13.95 7.35C14.1333 7.16667 14.225 6.93333 14.225 6.65C14.225 6.36667 14.1333 6.13333 13.95 5.95C13.7667 5.76667 13.5333 5.675 13.25 5.675C12.9667 5.675 12.7333 5.76667 12.55 5.95L7.6" fill="#FFFCF3"/>
</svg>
