<svg width="30" height="30" viewBox="0 0 30 30" fill="none" xmlns="http://www.w3.org/2000/svg">
<path id="Vector" d="M15 0.740845C6.7125 0.740845 2.18932e-06 7.45334 2.18932e-06 15.7408C-0.00169914 18.8898 0.988222 21.9593 2.82933 24.5139C4.67043 27.0685 7.26922 28.9784 10.257 29.9728C11.007 30.1033 11.2875 29.6533 11.2875 29.2588C11.2875 28.9033 11.268 27.7228 11.268 26.4658C7.5 27.1603 6.525 25.5478 6.225 24.7033C6.0555 24.2713 5.325 22.9408 4.6875 22.5838C4.1625 22.3033 3.4125 21.6088 4.668 21.5908C5.85 21.5713 6.693 22.6783 6.975 23.1283C8.325 25.3963 10.482 24.7588 11.343 24.3658C11.475 23.3908 11.868 22.7353 12.3 22.3603C8.9625 21.9853 5.475 20.6908 5.475 14.9533C5.475 13.3213 6.0555 11.9728 7.0125 10.9213C6.8625 10.5463 6.3375 9.00884 7.1625 6.94634C7.1625 6.94634 8.418 6.55334 11.2875 8.48534C12.5086 8.14644 13.7703 7.97586 15.0375 7.97834C16.3125 7.97834 17.5875 8.14634 18.7875 8.48384C21.6555 6.53384 22.9125 6.94784 22.9125 6.94784C23.7375 9.01034 23.2125 10.5478 23.0625 10.9228C24.018 11.9728 24.6 13.3033 24.6 14.9533C24.6 20.7103 21.0945 21.9853 17.757 22.3603C18.3 22.8283 18.7695 23.7283 18.7695 25.1353C18.7695 27.1408 18.75 28.7533 18.75 29.2603C18.75 29.6533 19.032 30.1213 19.782 29.9713C22.7595 28.966 25.3469 27.0523 27.1799 24.4996C29.0128 21.9468 29.9991 18.8835 30 15.7408C30 7.45334 23.2875 0.740845 15 0.740845Z" fill="#FFFCF3"/>
</svg>
